<?xml version="1.0" encoding="UTF-8" standalone="no"?><!DOCTYPE svg PUBLIC "-//W3C//DTD SVG 1.1//EN" "http://www.w3.org/Graphics/SVG/1.1/DTD/svg11.dtd"><svg width="100%" height="100%" viewBox="0 0 256 256" version="1.1" xmlns="http://www.w3.org/2000/svg" xmlns:xlink="http://www.w3.org/1999/xlink" xml:space="preserve" xmlns:serif="http://www.serif.com/" style="fill-rule:evenodd;clip-rule:evenodd;stroke-linejoin:round;stroke-miterlimit:1.41421;"><g id="URL-Creator" serif:id="URL Creator"><path d="M218.475,37.525c-23.138,-23.138 -55.175,-37.525 -90.475,-37.525c-70.6,0 -128,57.251 -128,128c0,35.3 14.387,67.337 37.525,90.475c23.138,23.138 55.175,37.525 90.475,37.525c35.3,0 67.337,-14.239 90.475,-37.525c23.138,-23.138 37.525,-55.175 37.525,-90.475c0,-35.448 -14.387,-67.337 -37.525,-90.475Z" style="fill:#303ab2;"/><path d="M90.781,109.178l-20.041,18.203c-16.518,15.056 -17.641,41.153 -2.568,57.672c15.055,16.569 40.71,17.471 57.279,2.466l20.041,-18.203c0.51,-0.51 1.735,-1.616 2.075,-2.347c-12.827,2.909 -22.677,-0.902 -25.705,-1.906c-2.518,2.297 -9.85,8.966 -9.85,8.966c-8.727,7.944 -22.405,7.06 -30.35,-1.685c-7.945,-8.744 -7.502,-22.456 1.225,-30.349l21.605,-19.649c8.728,-7.945 22.405,-7.06 30.35,1.684c3.13,3.419 3.913,6.107 5.155,9.578c5.818,0.612 15.055,-8.574 15.396,-9.068c-1.855,-4.695 -3.692,-8.676 -7.06,-12.316c-15.056,-16.655 -40.966,-18.118 -57.552,-3.046Zm42.105,-38.311l-20.041,18.203c-0.51,0.51 -1.514,1.854 -1.905,2.569c12.827,-2.909 22.796,1.004 25.807,2.007c2.518,-2.296 9.918,-8.897 9.918,-8.897c8.728,-7.945 22.235,-7.23 30.18,1.463c7.945,8.727 7.332,22.235 -1.395,30.18l-21.605,19.649c-8.728,7.944 -22.235,7.281 -30.129,-1.463c-3.13,-3.42 -3.862,-5.989 -5.035,-9.459c-5.887,-0.613 -15.124,8.676 -15.447,9.237c1.854,4.696 3.691,8.728 6.991,12.436c15.056,16.57 40.711,17.472 57.28,2.467l20.041,-18.203c16.569,-15.056 17.913,-40.591 2.858,-57.161c-15.005,-16.57 -41,-18.084 -57.518,-3.028Z" style="fill:#fff;"/></g></svg>